# xmcd
# 
# Track frame offsets:
#   150
#   12427
#   24627
#   36049
#   49997
#   62383
#   74476
#   86547
#   98657
#   106424
#   117429
#   127649
#   137230
#   150675
#   163880
#   179340
#   189791
#   202083
# 
# Disc length: 2862 seconds
# 
# Revision: 1
# Processed by: cddbd v1.5.2PL0 Copyright (c) Steve Scherf et al.
# Submitted via: VOLTOCDX V1.0.22 
# 
DISCID=f30b2c12
DTITLE=Various Artist - 18 Greatest Redneck Hits
DYEAR=2007
DGENRE=country
TTITLE0=Rednecks, White Socks, and Blue Ribbon Beer - Johnny Russell
TTITLE1=Okie From Muskogee - Merle Haggard
TTITLE2=White Lightening - George Jones
TTITLE3=Oney - Johnny Cash
TTITLE4=Move It On Over - Hank Williams
TTITLE5=Ten With a Two - Willie Nelson
TTITLE6=Born Hell Raiser - Johnny Paycheck
TTITLE7=Mississippi Woman - David Allan Coe
TTITLE8=Dang Me - Roger Miller
TTITLE9=Set 'Em Up Joe - Vern Gosdin
TTITLE10=Follin' Around - Waylon Jennings
TTITLE11=I've Got Five Dollars and It's Saturday Night - Faron Young
TTITLE12=Baby's Got Her Blue Jeans On - Mel McDaniel
TTITLE13=The Man That Turned My Mama On - Tanya Tucker
TTITLE14=I Dreamed of a Hillbilly Heaven - Tex Ritter
TTITLE15=Wild As A Wildcat - Charlie Walker
TTITLE16=It's a Cheating Situation - Moe Bandy
TTITLE17=Pistol Packin' Mama - Al Dexter
EXTD=
EXTT0=
EXTT1=
EXTT2=
EXTT3=
EXTT4=
EXTT5=
EXTT6=
EXTT7=
EXTT8=
EXTT9=
EXTT10=
EXTT11=
EXTT12=
EXTT13=
EXTT14=
EXTT15=
EXTT16=
EXTT17=
PLAYORDER=
